<?xml version="1.0" standalone="no"?>
<!DOCTYPE svg PUBLIC "-//W3C//DTD SVG 20010904//EN"
 "http://www.w3.org/TR/2001/REC-SVG-20010904/DTD/svg10.dtd">
<svg version="1.0" xmlns="http://www.w3.org/2000/svg"
 width="512.000000pt" height="512.000000pt" viewBox="0 0 512.000000 512.000000"
 preserveAspectRatio="xMidYMid meet">

<g transform="translate(0.000000,512.000000) scale(0.100000,-0.100000)"
fill="#000000" stroke="none">
<path d="M1522 2635 c-58 -18 -115 -58 -146 -103 -46 -67 -56 -114 -56 -261 0
-129 1 -139 29 -196 32 -68 66 -103 131 -137 63 -32 196 -33 255 -1 55 29 110
88 137 148 20 45 23 65 23 195 0 132 -2 150 -24 198 -29 65 -104 134 -168 156
-56 19 -122 20 -181 1z m138 -80 c89 -46 95 -168 10 -219 -61 -35 -148 -6
-176 59 -18 45 -18 63 4 103 34 64 102 88 162 57z"/>
<path d="M3406 2626 c-73 -31 -119 -74 -154 -146 -26 -52 -27 -63 -27 -200 0
-130 2 -150 23 -195 27 -60 82 -119 137 -148 59 -32 192 -31 255 1 65 34 99
69 131 137 28 58 29 66 29 206 0 143 -1 147 -31 207 -69 139 -222 197 -363
138z m168 -75 c64 -42 82 -109 46 -168 -67 -110 -230 -65 -230 64 0 92 108
154 184 104z"/>
<path d="M2327 1669 c-27 -16 -49 -67 -42 -98 6 -26 187 -260 223 -287 21 -17
82 -17 102 -1 17 13 174 205 202 246 29 42 23 95 -13 125 l-31 26 -211 0
c-125 0 -219 -5 -230 -11z"/>
</g>
</svg>
