<?xml version="1.0" standalone="no"?>
<!DOCTYPE svg PUBLIC "-//W3C//DTD SVG 20010904//EN"
 "http://www.w3.org/TR/2001/REC-SVG-20010904/DTD/svg10.dtd">
<svg version="1.0" xmlns="http://www.w3.org/2000/svg"
 width="626.000000pt" height="657.000000pt" viewBox="0 0 626.000000 657.000000"
 preserveAspectRatio="xMidYMid meet">
<metadata>
Created by potrace 1.16, written by Peter Selinger 2001-2019
</metadata>
<g transform="translate(0.000000,657.000000) scale(0.100000,-0.100000)"
fill="#000000" stroke="none">
<path d="M3912 6331 c-163 -89 -178 -101 -203 -156 -29 -63 -25 -142 11 -210
34 -65 36 -91 15 -225 -19 -116 -42 -198 -61 -217 -23 -23 -29 -64 -13 -92 14
-24 11 -45 -27 -231 -27 -137 -43 -197 -47 -180 -3 14 -22 157 -41 318 -19
162 -36 295 -38 297 -2 2 -40 -1 -86 -7 l-83 -10 -45 51 c-25 28 -60 55 -80
61 -84 28 -187 3 -233 -56 l-22 -27 -37 20 c-82 46 -170 37 -240 -23 -24 -20
-43 -30 -47 -24 -14 23 -86 50 -134 50 -63 0 -98 -13 -137 -51 -22 -22 -34
-27 -39 -19 -14 22 -90 50 -139 50 -96 0 -178 -65 -192 -152 -7 -41 -11 -43
-96 -53 -37 -4 -58 -11 -58 -19 0 -7 32 -275 70 -596 39 -321 69 -588 67 -594
-7 -22 -193 277 -272 439 -67 137 -158 353 -199 469 -6 17 -13 18 -67 12 -143
-14 -273 -66 -428 -171 -117 -77 -254 -212 -315 -306 l-16 -26 114 -101 c178
-157 405 -415 587 -667 86 -118 83 -112 64 -141 -26 -41 -53 -126 -60 -196 -9
-84 7 -188 49 -313 36 -106 106 -393 130 -535 16 -92 32 -310 23 -310 -3 0
-55 150 -117 334 -61 183 -117 342 -125 352 -14 18 -14 18 -15 -3 0 -30 -34
-63 -65 -63 -13 0 -36 -12 -50 -26 -21 -21 -33 -25 -58 -21 -18 3 -41 7 -52 9
-16 2 -20 -3 -22 -29 -1 -18 2 -33 6 -33 4 0 8 -7 8 -15 0 -13 -3 -13 -19 2
-11 9 -18 11 -18 5 0 -7 3 -12 8 -12 4 0 12 -11 19 -25 6 -14 7 -25 2 -25 -5
0 -9 5 -9 10 0 6 -5 10 -11 10 -7 0 -6 -9 4 -23 8 -13 12 -29 8 -36 -6 -10
-10 -9 -15 4 -3 9 -21 40 -40 68 -33 51 -34 54 -39 195 -5 128 -1 162 18 132
3 -5 17 -10 30 -10 13 0 27 -4 30 -10 3 -6 -1 -7 -12 -4 -17 5 -17 5 0 -6 9
-6 23 -8 30 -4 9 5 9 4 0 -7 -7 -7 -13 -25 -13 -40 0 -15 -5 -40 -10 -54 -9
-23 -8 -26 5 -21 11 4 14 2 8 -6 -4 -7 -8 -31 -9 -53 -2 -39 -2 -39 12 -15 16
30 18 43 4 35 -15 -9 -12 4 5 21 8 8 12 21 8 29 -3 8 -2 31 1 50 7 33 9 35 46
35 26 0 48 8 68 25 16 13 33 21 37 17 11 -10 -4 101 -16 113 -5 5 -9 1 -9 -12
0 -34 -25 -48 -52 -29 -31 22 -43 20 -56 -8 -18 -40 -62 -40 -145 2 -11 5 3
-320 14 -333 27 -29 -14 -95 -59 -95 -12 0 -22 -6 -22 -13 0 -29 -41 -52 -86
-50 -24 1 -44 -2 -44 -6 0 -7 89 -232 128 -326 9 -22 16 -45 14 -52 -2 -7 2
-13 8 -13 6 0 9 -4 6 -9 -4 -5 0 -22 8 -38 8 -15 20 -48 26 -73 7 -25 16 -55
21 -68 17 -44 12 -52 -34 -52 l-43 0 -148 343 c-82 188 -150 347 -153 353 -3
7 5 10 21 7 14 -3 39 2 57 11 44 22 46 21 59 -19 6 -19 15 -37 20 -40 12 -7 0
67 -13 83 -8 10 -7 16 3 22 12 7 11 10 -3 16 -11 4 -29 -5 -53 -26 -36 -31
-49 -34 -104 -19 -8 2 -15 -1 -15 -6 0 -6 61 -152 135 -324 126 -294 133 -313
115 -323 -59 -33 -75 -75 -75 -193 0 -87 13 -129 45 -143 19 -9 25 -19 25 -43
0 -52 39 -229 75 -335 94 -282 250 -500 459 -639 62 -41 92 -68 106 -95 38
-74 144 -203 222 -270 181 -153 401 -249 655 -284 185 -26 555 -39 873 -32
539 11 786 48 990 148 93 46 116 63 200 147 69 69 108 119 140 177 35 63 52
84 75 93 55 20 179 109 254 183 202 200 332 490 386 859 8 59 15 127 15 152 0
26 6 49 14 56 23 19 40 101 41 190 l0 83 -43 38 c-23 21 -69 49 -101 62 -32
12 -60 25 -62 28 -3 4 473 801 558 936 13 21 7 26 -154 124 -147 89 -169 99
-178 84 -5 -9 -17 -25 -25 -36 -15 -18 -16 -16 -18 39 -3 66 -24 148 -54 207
-27 53 -122 152 -176 183 -136 80 -344 86 -469 13 -39 -23 -39 -22 -12 32 12
23 41 88 64 145 58 137 101 199 207 296 161 148 219 247 226 382 6 119 -19
178 -117 276 -210 208 -555 262 -845 130 -93 -42 -179 -105 -259 -191 -66 -70
-68 -71 -63 -38 4 18 17 118 31 222 14 104 26 190 28 191 1 0 14 6 30 13 26
11 27 14 27 85 0 68 41 322 60 372 5 13 24 26 50 34 80 24 128 84 144 181 l6
35 -20 -25 -20 -25 11 33 c8 24 8 45 -1 80 -11 45 -55 132 -66 132 -3 0 -3
-19 0 -42 5 -39 5 -40 -4 -13 -6 17 -14 63 -18 102 l-7 73 -143 -79z m-35
-486 c1 -1 -8 -73 -22 -160 -13 -88 -26 -180 -30 -205 -11 -82 -12 -83 -61
-77 -60 6 -94 30 -94 65 0 37 17 52 60 53 l35 1 -28 10 c-18 6 -26 15 -23 24
8 21 43 212 51 275 l6 57 52 -21 c29 -12 53 -22 54 -22z m-717 -125 c28 -15
14 -40 -22 -40 -79 0 -148 -80 -133 -152 10 -44 40 -85 76 -103 16 -9 29 -20
29 -25 0 -17 -39 -21 -69 -6 -62 33 -100 125 -81 197 24 90 137 163 200 129z
m-312 -67 c3 -20 -1 -23 -33 -23 -68 0 -117 -42 -130 -111 -8 -47 29 -118 72
-138 38 -19 38 -35 0 -39 -38 -5 -63 13 -94 65 -55 95 -26 205 69 252 56 28
112 25 116 -6z m-308 -18 c0 -17 -7 -20 -64 -30 -26 -4 -51 -18 -73 -40 -28
-28 -33 -40 -33 -81 0 -61 27 -108 75 -131 41 -20 44 -30 10 -39 -34 -9 -85
23 -113 72 -18 32 -22 51 -20 100 6 102 70 163 171 164 36 0 47 -4 47 -15z
m-320 -24 c0 -14 -10 -20 -42 -24 -79 -11 -136 -81 -122 -153 8 -42 56 -102
89 -110 33 -8 20 -34 -17 -34 -41 0 -102 62 -117 118 -30 110 51 222 160 222
41 0 49 -3 49 -19z m1184 -33 c10 -39 7 -78 -10 -109 -10 -20 -13 -42 -9 -62
5 -24 4 -28 -4 -17 -9 13 -11 13 -11 -2 0 -10 -10 -20 -22 -23 -18 -4 -676
-85 -1245 -154 -35 -4 -65 -9 -67 -12 -2 -2 11 -128 30 -279 48 -391 84 -708
84 -742 0 -16 -7 -45 -15 -65 l-15 -36 -26 24 c-71 66 -83 91 -99 205 -35 253
-135 1108 -130 1113 3 2 32 7 65 9 51 4 60 2 60 -12 0 -24 34 -85 73 -130 43
-50 87 -54 124 -12 26 30 28 44 12 80 -14 29 -59 51 -88 41 -17 -5 -23 -1 -31
21 -6 15 -9 28 -8 29 5 4 182 25 206 25 15 0 22 -6 22 -20 0 -35 25 -83 70
-132 48 -55 87 -63 127 -26 53 50 14 133 -60 126 -35 -3 -38 -1 -46 27 -5 19
-4 32 3 36 6 4 56 12 110 18 111 13 110 13 120 -49 4 -24 23 -59 52 -94 51
-63 82 -72 128 -35 55 43 19 129 -55 129 -34 0 -38 3 -44 31 -4 17 -5 33 -2
36 3 2 41 9 84 14 43 5 92 11 110 14 31 5 33 4 43 -37 7 -24 22 -59 33 -78 12
-19 27 -44 32 -55 25 -47 105 -44 130 5 28 54 -2 106 -64 112 -28 2 -36 9 -44
31 -5 16 -7 30 -4 33 5 6 286 41 338 43 30 1 38 -3 43 -21z m-1171 -19 c26
-13 67 -50 67 -59 0 -8 -219 -34 -226 -27 -3 3 2 19 10 36 28 52 98 76 149 50z
m1137 -226 c0 -5 16 -138 35 -298 19 -159 35 -293 35 -296 0 -4 -144 42 -319
102 l-320 108 -12 -37 c-6 -20 -13 -40 -15 -43 -2 -4 -66 17 -141 47 -76 30
-142 54 -148 54 -5 0 -77 -172 -160 -382 -82 -211 -151 -376 -152 -368 -11 69
-113 916 -113 938 l0 28 618 76 c626 77 692 84 692 71z m1260 -109 c36 -8 110
-37 165 -63 115 -56 198 -130 242 -214 24 -45 28 -64 28 -142 0 -85 -3 -96
-37 -166 -29 -59 -57 -94 -129 -164 -50 -50 -103 -102 -118 -116 -14 -14 -41
-43 -59 -65 l-33 -39 6 30 c5 28 4 28 -6 8 -11 -21 -13 -21 -40 -7 -26 13 -30
13 -49 -6 -11 -11 -20 -16 -20 -12 0 5 9 17 20 27 11 10 17 22 14 26 -3 5 -1
9 4 9 5 0 9 6 10 13 0 6 6 31 11 54 22 85 -21 128 -122 121 -80 -5 -165 -45
-228 -109 -56 -55 -85 -108 -102 -186 -12 -53 -16 -58 -48 -66 -19 -5 -54 -7
-79 -4 -44 5 -192 36 -197 41 -2 1 9 37 23 79 l26 77 45 0 c85 0 143 63 143
157 0 48 -34 118 -71 144 -61 43 -148 34 -189 -19 -19 -24 -22 -24 -62 -13
-23 7 -52 17 -65 22 l-23 9 25 67 c58 154 143 269 267 363 196 148 414 197
648 144z m-3165 -111 c-30 -47 -93 -127 -119 -152 l-25 -23 -31 50 -31 51 -87
-65 c-94 -70 -266 -161 -322 -171 l-35 -6 30 33 c34 37 156 130 230 177 114
72 279 131 369 132 l38 1 -17 -27z m80 -118 c152 -385 317 -673 504 -879 40
-44 68 -82 64 -86 -4 -4 -44 -19 -88 -35 -170 -59 -304 -143 -413 -260 l-60
-64 -63 92 c-210 307 -475 617 -691 808 l-77 68 42 11 c312 77 573 233 694
416 20 30 37 53 38 52 2 -2 24 -57 50 -123z m-267 -24 c12 -21 22 -41 22 -45
0 -3 -28 -27 -62 -52 -74 -54 -183 -111 -288 -149 l-75 -27 -32 38 -33 37 71
24 c39 13 91 34 117 47 59 30 227 140 236 155 12 19 21 13 44 -28z m1332 -72
c58 -23 115 -45 127 -50 20 -7 21 -11 12 -39 -6 -16 -14 -30 -18 -30 -3 0 -46
16 -95 35 -49 19 -92 35 -96 35 -4 0 -40 -83 -80 -185 -59 -150 -76 -185 -89
-180 -13 5 -14 4 -3 -6 15 -16 16 -33 0 -23 -7 4 -8 3 -4 -5 8 -12 -14 -81
-26 -81 -4 0 -5 6 -2 14 3 8 1 17 -5 21 -7 3 -8 0 -5 -9 4 -11 0 -16 -12 -17
-16 0 -15 -2 4 -9 12 -5 22 -14 22 -19 0 -11 -26 -4 -50 13 -13 10 -13 9 -1
-6 7 -10 20 -18 27 -18 16 0 17 -9 4 -30 -8 -12 -10 -12 -10 5 0 18 -2 18 -20
-5 -10 -14 -22 -21 -26 -17 -4 4 -2 7 4 7 7 0 11 11 10 24 -1 14 -6 22 -10 20
-5 -3 -6 -9 -3 -14 3 -4 -3 -14 -13 -21 -15 -13 -16 -12 -3 4 7 9 11 17 8 17
-5 0 3 22 38 105 7 17 50 129 95 250 89 236 97 255 108 255 4 0 54 -19 112
-41z m500 -81 c146 -50 266 -94 268 -99 2 -4 10 -5 19 -2 12 5 14 3 8 -7 -6
-10 -4 -12 8 -7 21 8 67 -12 67 -29 0 -7 -6 -15 -12 -17 -7 -3 2 -4 20 -2 17
2 32 0 32 -4 0 -11 -47 -31 -71 -31 -11 0 -37 -9 -59 -20 -22 -11 -55 -20 -73
-20 -26 0 -36 -5 -40 -19 -3 -12 -17 -21 -38 -25 -61 -12 -124 -28 -144 -36
-11 -5 -76 -12 -145 -15 -186 -10 -184 -10 -196 -18 -7 -4 -23 -6 -35 -6 -13
1 -32 -2 -41 -6 -11 -4 -18 -3 -18 4 0 6 4 11 9 11 5 0 8 6 7 13 0 6 30 108
69 225 56 171 72 211 85 206 8 -3 134 -46 280 -96z m-541 3 c12 -8 11 -15 -3
-51 -9 -23 -15 -44 -13 -46 2 -3 12 16 22 41 14 39 20 45 38 39 12 -4 24 -8
26 -10 1 -1 -7 -33 -19 -69 -29 -86 -21 -94 9 -9 23 64 37 76 70 55 12 -8 5
-38 -41 -173 -46 -138 -59 -165 -81 -176 -63 -31 -99 -110 -113 -244 -3 -38
-8 -68 -10 -68 -3 0 -47 -9 -100 -21 -53 -11 -98 -19 -100 -17 -5 5 289 758
296 758 3 0 11 -4 19 -9z m1427 -170 c47 -22 80 -68 90 -128 12 -78 -52 -163
-123 -163 -42 1 -44 13 -17 93 14 43 24 83 21 90 -3 7 -32 22 -66 32 -34 10
-61 24 -61 30 0 24 61 63 100 64 8 0 33 -8 56 -18z m-842 -187 c48 -7 66 -23
80 -71 7 -22 -6 -26 -33 -9 -10 6 -12 5 -7 -2 4 -7 2 -12 -4 -12 -6 0 -9 -4
-6 -9 4 -5 -4 -7 -16 -3 -14 3 -19 1 -14 -6 5 -8 1 -10 -9 -5 -9 3 -12 9 -7
12 6 3 -37 7 -93 9 -153 5 -384 -43 -408 -84 -4 -8 -14 -14 -21 -14 -8 0 -17
-7 -20 -16 -3 -8 -10 -12 -16 -9 -5 3 -10 0 -10 -7 0 -9 -3 -9 -10 2 -9 13
-10 13 -10 0 0 -13 -1 -13 -10 0 -8 13 -10 13 -10 -1 0 -9 -7 -16 -15 -16 -11
0 -13 10 -10 45 6 56 32 101 73 125 71 42 449 88 576 71z m566 -321 c30 -9 57
-18 59 -20 2 -1 -7 -13 -22 -25 -14 -13 -35 -43 -45 -68 -11 -25 -33 -59 -49
-76 l-30 -31 -64 13 c-180 38 -577 42 -853 9 -481 -58 -744 -203 -786 -432 -5
-26 -14 -68 -20 -93 -17 -64 -7 -151 25 -215 31 -65 81 -107 190 -164 24 -13
64 -16 200 -15 158 0 183 3 345 38 96 20 218 44 270 52 126 18 287 18 320 -1
l25 -14 -30 -2 -30 -1 30 -7 c29 -6 29 -7 10 -20 -19 -12 -19 -12 3 -8 12 3
22 1 22 -5 0 -6 -13 -8 -29 -6 -17 2 -27 0 -24 -5 3 -5 -4 -22 -16 -38 -11
-15 -21 -35 -21 -44 0 -8 -9 -24 -20 -35 -11 -11 -20 -29 -20 -39 0 -11 -18
-53 -40 -95 -21 -42 -42 -92 -46 -110 -7 -38 -31 -54 -50 -34 -7 7 -20 29 -31
48 -23 45 -144 226 -177 265 l-24 30 -88 -30 c-156 -52 -611 -288 -782 -403
-89 -61 -97 -75 -73 -143 31 -90 95 -231 175 -385 42 -81 76 -148 76 -150 0
-2 -22 -15 -48 -28 -91 -46 -153 -133 -182 -256 -18 -74 -15 -341 5 -456 26
-145 115 -387 164 -446 18 -21 25 -58 11 -58 -5 0 -7 -7 -4 -15 4 -8 1 -15 -6
-15 -6 0 -9 -4 -6 -9 10 -15 -55 -21 -121 -11 -128 21 -264 79 -364 156 -76
58 -93 82 -120 162 -53 160 -44 304 40 593 152 524 188 726 179 997 -5 114
-13 167 -47 317 -71 306 -83 373 -83 485 0 170 39 266 160 387 256 255 813
424 1562 473 174 11 412 3 480 -17z m1290 -221 c91 -44 114 -64 106 -89 -8
-26 -13 -25 -108 21 -386 188 -748 -256 -489 -599 40 -53 50 -72 32 -60 -5 3
-11 -5 -13 -17 -4 -21 -7 -20 -50 24 -41 42 -47 53 -53 105 -3 32 -15 125 -26
206 l-20 148 32 59 c55 103 147 181 264 223 39 13 74 17 155 14 94 -2 112 -6
170 -35z m-1487 4 c166 -31 283 -81 361 -154 27 -26 86 -118 86 -136 0 -4 -19
9 -41 29 -143 129 -584 213 -962 185 -417 -31 -786 -138 -966 -280 -47 -37
-52 -39 -46 -19 54 175 272 300 625 360 185 31 299 38 585 34 196 -2 294 -7
358 -19z m1462 -85 c76 -37 147 -111 183 -189 23 -48 27 -70 27 -147 0 -77 -4
-99 -27 -147 -114 -245 -416 -302 -604 -114 -79 79 -107 147 -107 261 -1 136
66 255 181 322 106 62 238 68 347 14z m-1585 -25 c200 -25 393 -80 452 -129
31 -25 60 -113 42 -125 -6 -4 -14 -14 -17 -22 -3 -9 -6 -2 -7 15 -1 17 -4 23
-7 15 -10 -27 -46 -60 -66 -60 -10 0 -45 -6 -76 -14 -31 -8 -78 -17 -106 -20
-27 -4 -68 -11 -90 -16 -22 -5 -62 -10 -88 -10 -30 0 -46 -4 -42 -10 4 -6 -8
-10 -30 -10 -20 0 -84 -9 -143 -21 -59 -11 -126 -24 -150 -28 -34 -7 -44 -6
-53 8 -10 15 -10 14 -5 -1 3 -12 1 -15 -9 -12 -8 3 -17 18 -20 34 -16 75 -100
106 -150 55 -27 -26 -33 -73 -13 -93 7 -7 8 -12 4 -12 -5 0 -2 -8 5 -17 8 -9
9 -14 3 -10 -6 3 -64 -3 -130 -14 -65 -10 -139 -22 -164 -25 -25 -3 -47 -10
-49 -16 -2 -6 -7 -5 -11 3 -6 9 -12 10 -22 2 -11 -10 -102 -27 -203 -39 -47
-6 -134 -22 -158 -30 -36 -12 -107 -11 -107 0 0 6 -4 6 -8 -2 -10 -15 -42 46
-53 103 -10 52 7 142 34 180 101 141 421 262 847 319 140 19 447 20 590 2z
m1865 -190 c13 -43 16 -84 13 -151 -3 -82 -8 -101 -41 -167 -74 -150 -214
-247 -368 -256 -81 -5 -189 11 -189 28 0 5 7 15 15 23 11 12 32 14 93 10 134
-9 240 33 331 133 86 94 121 240 88 368 -15 54 -15 61 1 81 15 21 18 21 29 6
6 -9 19 -43 28 -75z m251 -203 c79 -48 144 -91 144 -94 0 -4 -30 -56 -67 -115
-82 -135 -410 -676 -511 -844 -41 -69 -78 -128 -81 -132 -6 -6 -138 5 -194 18
-15 3 -25 10 -22 14 3 5 -24 28 -59 50 -58 37 -64 43 -54 60 7 10 14 17 18 15
3 -1 47 -28 98 -59 51 -31 97 -56 102 -56 26 0 1 20 -90 74 -55 32 -100 61
-100 65 0 3 4 11 8 18 6 9 24 3 66 -23 32 -19 64 -33 70 -31 6 2 -17 22 -51
43 -67 42 -67 42 -54 63 11 17 24 12 99 -34 23 -14 42 -21 42 -15 0 9 -26 27
-104 75 -15 9 -15 13 -4 28 13 18 17 17 74 -17 32 -20 62 -36 67 -36 20 0 1
19 -50 49 -32 19 -60 35 -61 37 -2 1 -1 12 3 24 7 21 7 21 53 -6 26 -15 57
-34 69 -41 13 -9 24 -10 27 -4 3 5 -23 26 -59 47 -36 21 -65 41 -65 45 0 4 7
12 15 19 11 10 33 0 114 -49 55 -34 103 -61 106 -61 22 0 -10 26 -99 80 -91
55 -103 65 -94 80 10 16 17 14 74 -21 35 -21 66 -34 69 -29 3 5 -19 23 -50 41
-62 35 -69 43 -58 64 7 12 18 9 66 -20 32 -19 63 -35 68 -35 20 0 -2 19 -56
50 -59 34 -62 37 -42 63 11 15 17 13 70 -20 32 -19 61 -33 64 -29 8 8 8 8 -59
48 -52 31 -56 36 -44 53 12 17 16 17 70 -14 32 -18 60 -30 63 -27 7 7 11 4
-54 45 -56 35 -58 38 -44 60 7 10 29 1 104 -44 53 -31 102 -55 109 -53 7 3
-31 31 -85 63 -54 32 -99 61 -102 64 -2 4 0 13 5 20 6 11 22 6 74 -23 82 -46
87 -30 6 19 -53 32 -59 39 -50 56 12 21 17 20 92 -28 42 -25 48 -27 48 -14 0
5 -25 24 -55 41 -30 17 -55 38 -55 46 0 28 30 26 78 -5 48 -30 79 -40 67 -22
-3 6 -30 24 -61 42 -51 29 -55 33 -40 48 15 15 21 14 71 -14 70 -38 82 -27 15
14 -43 26 -50 34 -40 46 17 21 22 20 92 -23 90 -55 108 -64 108 -53 0 5 -39
33 -86 62 -76 45 -84 53 -71 66 13 13 20 12 61 -12 25 -15 46 -22 46 -16 0 5
-20 22 -45 36 -38 23 -43 29 -35 46 13 24 13 24 66 -7 63 -37 68 -22 5 17 -28
18 -51 35 -50 38 0 3 3 14 7 23 6 15 13 13 62 -17 30 -18 56 -32 58 -30 8 8
-11 26 -58 52 -51 29 -60 43 -37 61 9 8 27 2 67 -23 56 -35 70 -41 70 -27 0 4
-21 19 -48 34 -78 45 -76 43 -61 67 8 11 18 21 23 21 5 0 73 -39 152 -87z
m-935 -330 l46 -29 -34 -143 c-18 -80 -35 -146 -37 -149 -3 -2 -21 9 -40 25
l-36 28 0 174 0 175 28 -26 c15 -14 48 -39 73 -55z m-790 18 c391 -99 802
-340 880 -516 24 -53 24 -52 -43 -207 -39 -91 -54 -116 -64 -108 -8 8 -14 8
-19 0 -4 -7 -13 -6 -28 2 -30 15 -88 28 -81 17 3 -5 -1 -9 -8 -9 -7 0 -30 -11
-51 -25 l-37 -26 0 39 c0 105 -52 147 -133 106 -18 -9 -42 -25 -54 -37 l-22
-20 0 54 c1 130 -62 161 -173 85 l-36 -24 -4 53 c-6 74 -28 105 -75 105 -45 0
-112 -38 -152 -87 l-30 -37 -53 17 c-59 18 -128 70 -128 94 0 9 8 25 18 36 13
14 17 37 17 92 0 95 -18 119 -84 112 -23 -3 -56 -14 -72 -26 -16 -12 -29 -19
-29 -15 0 3 24 48 52 100 45 79 56 93 73 88 95 -29 294 -108 403 -159 72 -35
132 -62 132 -60 0 18 -301 157 -456 211 -43 15 -80 28 -82 30 -8 5 23 51 66
96 43 47 46 48 102 48 32 0 109 -13 171 -29z m1094 -345 c-108 -179 -201 -328
-206 -331 -5 -3 0 15 11 40 24 55 25 74 7 118 -12 29 -10 49 28 207 23 96 44
187 48 203 7 26 10 27 71 27 66 0 176 28 211 54 11 8 21 13 23 11 2 -2 -85
-150 -193 -329z m-2031 106 c36 -53 107 -171 159 -260 l95 -163 -72 -128 -71
-128 -30 53 c-16 30 -36 54 -43 54 -20 0 -147 -66 -162 -85 -12 -14 -9 -25 18
-81 18 -35 36 -64 42 -64 6 0 37 14 70 30 33 17 61 30 64 30 14 0 -42 -79 -66
-93 -22 -13 -27 -22 -23 -39 3 -13 1 -30 -5 -38 -9 -13 -13 -12 -28 9 l-19 23
-44 -22 c-75 -38 -129 -74 -129 -88 0 -7 9 -30 20 -52 25 -50 25 -50 -9 -50
-23 0 -34 8 -50 35 -11 19 -26 35 -33 35 -19 0 -140 -59 -161 -78 -11 -9 -51
-22 -90 -29 -70 -12 -73 -11 -89 10 -29 38 -274 527 -313 627 l-38 94 40 36
c111 98 800 452 895 459 4 1 36 -43 72 -97z m-1655 -357 c94 -176 171 -325
171 -332 0 -12 -51 -33 -81 -33 -13 0 -63 86 -188 323 -94 178 -171 326 -171
329 0 3 11 9 25 12 13 3 29 16 36 27 9 18 13 19 24 8 8 -8 90 -158 184 -334z
m-109 -52 c119 -225 165 -320 156 -325 -7 -4 -36 -8 -65 -10 l-52 -3 -168 305
-169 305 41 7 c23 4 50 17 61 28 11 10 22 18 24 15 2 -2 80 -147 172 -322z
m2783 105 c4 -14 -49 -167 -63 -181 -9 -11 -63 14 -104 46 l-30 24 24 33 c45
63 160 115 173 78z m182 -94 c13 -5 14 -8 3 -15 -10 -7 -10 -9 0 -9 6 0 12 -5
12 -11 0 -6 -7 -9 -15 -5 -11 4 -15 -1 -15 -17 0 -18 2 -19 11 -7 9 12 10 12
5 -3 -3 -10 -6 -23 -6 -29 0 -7 -6 -6 -15 2 -12 10 -13 6 -8 -24 5 -34 4 -36
-23 -37 -24 -1 -25 -3 -6 -6 12 -2 22 -8 22 -13 0 -12 -58 8 -92 32 -16 11
-28 25 -28 31 1 17 43 63 86 92 40 27 44 28 69 19z m-545 -148 l60 -27 -56
-107 c-31 -59 -60 -110 -63 -114 -7 -8 -179 67 -199 87 -11 10 -1 34 58 138
l72 125 34 -37 c18 -21 61 -50 94 -65z m782 37 c4 -16 -44 -168 -56 -180 -10
-10 -53 7 -94 37 -48 34 -47 43 10 100 54 55 133 78 140 43z m882 -23 c44 -21
74 -59 62 -79 -4 -5 -23 -15 -44 -21 -40 -11 -162 -14 -162 -4 0 18 74 124 86
124 8 0 34 -9 58 -20z m-449 -74 c119 -37 197 -49 335 -49 144 -1 182 10 190
56 l5 28 26 -28 c35 -37 39 -61 29 -155 -13 -114 -23 -130 -95 -150 -89 -25
-286 -23 -422 3 -166 32 -165 31 -191 130 -12 46 -22 91 -22 99 1 30 40 102
52 96 7 -2 49 -16 93 -30z m-1028 -55 l32 -13 -50 -99 c-28 -54 -54 -101 -59
-104 -7 -4 -58 17 -148 61 -2 1 25 54 58 118 l62 116 37 -33 c20 -18 51 -39
68 -46z m-2130 -23 c-4 -35 -16 -109 -28 -165 l-22 -102 -55 -21 c-83 -31
-203 -58 -319 -72 -118 -13 -233 -2 -313 33 -64 27 -75 59 -66 178 8 109 38
162 61 109 15 -34 67 -47 186 -47 122 -1 242 17 347 53 81 28 179 73 188 87 3
5 10 9 16 9 7 0 9 -20 5 -62z m1724 -69 c334 -158 621 -308 614 -320 -4 -5
-12 -9 -18 -8 -7 0 -6 3 2 6 10 4 5 10 -15 18 -24 10 -34 9 -58 -3 -24 -11
-37 -12 -68 -3 -24 8 -36 16 -32 23 4 6 3 8 -3 5 -5 -3 -113 39 -239 94 -126
55 -262 112 -303 126 l-74 27 -21 -28 c-11 -16 -53 -79 -92 -140 l-70 -111
-67 -9 c-37 -5 -70 -7 -72 -4 -5 5 214 407 237 436 6 6 14 12 18 12 4 0 122
-54 261 -121z m607 0 l23 -9 -26 -37 c-14 -21 -25 -46 -25 -56 0 -10 -4 -15
-10 -12 -5 3 -10 -2 -10 -12 0 -10 -7 -31 -15 -46 -10 -19 -10 -26 -2 -22 7 4
4 0 -5 -8 -10 -8 -14 -17 -10 -22 6 -6 -117 52 -126 60 -4 3 96 204 109 221 7
8 19 3 41 -18 18 -17 43 -34 56 -39z m229 -115 c13 -4 23 -12 23 -19 0 -8 -20
-55 -44 -105 -25 -49 -46 -95 -48 -101 -2 -7 -37 5 -86 30 l-83 42 63 118 63
119 44 -39 c24 -22 55 -42 68 -45z m-940 28 c91 -34 316 -132 458 -202 l100
-48 -180 6 c-99 4 -280 7 -403 7 -122 0 -222 2 -222 4 0 17 155 261 165 261 2
0 39 -13 82 -28z m2054 -201 c-16 -133 -46 -272 -81 -380 -34 -104 -118 -288
-144 -313 -10 -10 -14 -18 -10 -18 4 0 -8 -15 -27 -32 -19 -18 -33 -36 -32
-40 2 -5 -3 -7 -10 -5 -6 1 -11 -3 -10 -10 2 -7 -4 -10 -12 -7 -8 4 -15 1 -15
-5 0 -6 -16 -11 -36 -11 -31 0 -37 4 -50 35 -16 40 -20 240 -5 326 24 136 33
202 33 246 0 26 4 55 9 65 5 10 5 19 0 22 -5 4 -12 -12 -16 -35 -4 -22 -9 -38
-12 -35 -8 8 18 106 28 106 4 0 6 6 4 13 -8 18 52 85 95 107 21 11 81 31 132
44 51 14 109 31 128 39 45 20 46 16 31 -112z m-3086 -37 c20 -36 35 -66 33
-68 -1 -1 -30 -10 -63 -21 -112 -37 -190 -118 -227 -238 l-23 -72 -3 43 c-8
114 36 264 98 335 36 41 108 87 137 87 6 0 28 -30 48 -66z m-1279 36 c14 -6
72 -15 128 -21 55 -5 121 -17 145 -26 44 -17 116 -73 94 -73 -7 0 -15 5 -18
10 -3 6 -11 10 -17 10 -6 0 -3 -9 8 -21 11 -12 17 -32 16 -45 -3 -23 11 -105
44 -254 8 -36 16 -85 18 -110 3 -25 10 -83 17 -128 23 -149 -14 -201 -104
-148 -139 80 -289 373 -347 673 -20 103 -24 143 -16 143 3 0 17 -5 32 -10z
m2747 -60 c342 -21 596 -63 650 -109 38 -32 57 -78 57 -138 l-1 -48 -19 37
c-35 66 -153 110 -370 139 -127 16 -1089 24 -1284 10 -362 -27 -575 -74 -695
-156 -48 -31 -49 -32 -41 -9 30 78 86 138 165 178 85 42 299 77 585 95 189 12
758 12 953 1z m250 -140 c49 -6 107 -17 130 -24 39 -11 42 -15 45 -49 4 -41
-35 -187 -49 -187 -5 0 -9 5 -9 10 0 6 -15 19 -32 30 -40 24 -139 27 -181 5
-22 -11 -134 -16 -580 -25 -303 -6 -664 -12 -802 -13 l-250 -2 0 -65 0 -65
150 -6 c83 -4 273 -7 423 -8 210 -1 272 -4 272 -13 0 -10 2 -10 8 0 6 8 19 10
42 5 29 -5 31 -7 15 -15 -11 -5 83 -6 215 -3 210 5 435 7 498 6 12 -1 22 -7
22 -16 0 -32 -22 -116 -34 -128 -7 -6 -13 -14 -14 -17 0 -3 -5 -18 -11 -33
-10 -25 -13 -27 -33 -17 -21 10 -21 10 -5 -3 9 -8 17 -20 17 -27 0 -10 -3 -10
-15 0 -14 12 -36 7 -155 -38 -8 -3 -17 -6 -20 -7 -3 0 -20 -9 -38 -18 -18 -10
-37 -15 -43 -11 -6 3 -18 -1 -28 -10 -10 -9 -32 -18 -49 -20 -18 -2 -38 -9
-46 -15 -8 -7 -21 -11 -28 -9 -18 4 -88 -23 -88 -34 0 -4 -23 -10 -50 -14 -28
-4 -48 -9 -45 -12 8 -9 -54 -32 -86 -32 -18 0 -34 -8 -41 -20 -7 -11 -20 -20
-28 -20 -9 0 -25 -7 -36 -15 -10 -8 -29 -15 -40 -15 -12 0 -27 -7 -34 -15 -7
-8 -22 -15 -34 -16 -20 0 -21 -1 -1 -9 15 -6 6 -9 -35 -11 l-55 -2 45 -7 c43
-7 42 -7 -25 -9 -55 -2 -65 -5 -45 -12 42 -15 -315 -1 -435 16 -60 9 -120 23
-132 31 -68 43 -179 282 -217 468 -23 108 -21 250 4 303 52 116 313 193 755
223 178 12 1102 5 1208 -10z m66 -235 c16 -8 31 -22 35 -30 10 -27 7 -83 -6
-91 -7 -5 -8 -3 -3 7 7 11 5 11 -11 -1 -10 -8 -22 -18 -25 -23 -10 -14 -128
-28 -148 -18 -65 35 -57 132 14 162 33 13 114 10 144 -6z m-1 -238 c10 -26 32
-63 49 -82 51 -56 68 -84 55 -97 -6 -6 -8 -17 -5 -26 4 -10 2 -13 -5 -8 -7 4
-12 1 -12 -7 0 -8 -7 -17 -15 -21 -9 -3 -12 -12 -8 -23 3 -10 2 -15 -2 -10 -5
4 -14 -6 -21 -23 -12 -28 -16 -30 -71 -30 -79 0 -133 31 -151 85 -14 42 -16
34 37 175 11 30 20 70 21 88 l0 33 56 -3 56 -3 16 -48z"/>
<path d="M4625 5030 c-11 -4 -32 -21 -47 -36 -96 -103 -42 -279 91 -292 64 -6
111 21 140 82 56 115 -14 257 -125 255 -21 0 -48 -4 -59 -9z"/>
<path d="M4163 4969 c-41 -26 -67 -82 -66 -144 2 -194 244 -238 293 -54 19 70
-13 155 -74 197 -42 29 -109 29 -153 1z m149 -42 c4 -7 8 -8 8 -3 0 5 10 -4
22 -20 15 -19 23 -43 24 -73 1 -47 -13 -91 -28 -91 -4 0 -8 -7 -8 -15 0 -8 -3
-14 -7 -13 -5 1 -19 -2 -33 -6 -40 -10 -90 -14 -85 -6 6 10 -24 22 -36 14 -5
-3 -9 1 -9 9 0 8 -7 20 -15 27 -9 7 -14 19 -11 27 3 7 1 13 -4 13 -15 0 -12
68 5 100 9 17 22 30 30 30 8 0 15 4 15 9 0 23 118 21 132 -2z"/>
<path d="M2550 2792 c-242 -122 -433 -233 -522 -304 -56 -44 -51 -73 30 -195
23 -35 42 -53 55 -53 32 0 339 169 615 337 90 55 122 80 122 94 0 40 -107 199
-133 199 -7 0 -82 -35 -167 -78z m217 -5 c60 -91 70 -116 52 -128 -40 -26
-338 -204 -439 -261 -173 -98 -259 -141 -273 -135 -14 6 -72 100 -89 145 -15
40 -6 51 97 117 150 97 575 325 604 325 4 0 25 -28 48 -63z"/>
<path d="M2793 2506 c-99 -54 -213 -127 -231 -149 -11 -13 -10 -22 7 -54 25
-49 46 -67 68 -59 49 18 323 191 323 204 0 27 -50 102 -68 102 -9 0 -54 -20
-99 -44z"/>
<path d="M2317 2233 c-59 -32 -123 -71 -142 -86 l-35 -28 15 -37 c9 -20 24
-45 33 -54 16 -17 21 -16 87 18 112 58 227 128 232 141 8 20 -40 98 -62 101
-11 1 -69 -24 -128 -55z"/>
<path d="M2593 2134 c-37 -20 -76 -44 -87 -54 -18 -18 -18 -19 14 -75 18 -31
38 -59 45 -61 14 -6 125 46 164 75 l24 18 -37 61 c-20 34 -41 64 -46 67 -4 3
-39 -11 -77 -31z"/>
<path d="M2349 1995 c-91 -46 -95 -54 -68 -107 12 -24 28 -53 37 -65 l14 -23
89 46 c49 25 89 50 89 55 0 5 -14 36 -30 69 -20 39 -36 60 -48 60 -9 -1 -47
-16 -83 -35z"/>
<path d="M3849 1031 c-20 -20 -29 -39 -29 -61 0 -44 47 -90 93 -90 92 0 122
125 40 168 -37 20 -73 14 -104 -17z"/>
</g>
</svg>
